<svg width="20" height="25" viewBox="0 0 20 25" fill="none" xmlns="http://www.w3.org/2000/svg">
<path d="M2.27614 13.7239C1.75544 13.2032 0.911224 13.2032 0.390525 13.7239C-0.130175 14.2446 -0.130175 15.0888 0.390525 15.6095L8.11438 23.3333C9.15578 24.3747 10.8442 24.3747 11.8856 23.3333L19.6095 15.6095C20.1302 15.0888 20.1302 14.2446 19.6095 13.7239C19.0888 13.2032 18.2446 13.2032 17.7239 13.7239L11.3333 20.1144L11.3333 1.33333C11.3333 0.596953 10.7364 -4.04926e-07 10 -4.37114e-07C9.26362 -4.69302e-07 8.66667 0.596953 8.66667 1.33333L8.66667 20.1144L2.27614 13.7239Z" fill="#6F767E"/>
</svg>
