<svg width="47" height="27" viewBox="0 0 47 27" fill="none" xmlns="http://www.w3.org/2000/svg">
<path d="M24.5 9.50005L24.0425 9.29823L24.5 9.50005ZM46.5 22.5001L40.9865 20.787L42.2597 26.4184L46.5 22.5001ZM1.10198 1.48954C3.90861 0.904815 6.35657 1.89144 8.58846 3.58434C10.8345 5.28794 12.7943 7.65373 14.6239 9.74203C15.5298 10.776 16.4076 11.7453 17.2599 12.5019C18.1056 13.2527 18.9753 13.8395 19.8726 14.0452C20.8103 14.2602 21.7233 14.0468 22.583 13.3185C23.4162 12.6125 24.1958 11.4284 24.9575 9.70187L24.0425 9.29823C23.3042 10.9717 22.5994 11.9939 21.9366 12.5555C21.3001 13.0947 20.7053 13.2102 20.0961 13.0705C19.4465 12.9216 18.7303 12.4701 17.9237 11.754C17.1236 11.0438 16.2827 10.1178 15.3761 9.08304C13.5807 7.03383 11.5405 4.56836 9.19279 2.7876C6.83093 0.996123 4.09139 -0.154737 0.898021 0.510563L1.10198 1.48954ZM24.9575 9.70187C25.4264 8.63892 25.6715 7.76885 25.691 7.08349C25.7109 6.38505 25.4917 5.79361 24.9447 5.46965C24.4433 5.17261 23.7961 5.18531 23.1549 5.32789C22.4957 5.47446 21.7425 5.78055 20.9462 6.19918C17.7735 7.86707 13.5652 11.5117 11.1827 15.2561C9.99376 17.1247 9.21523 19.0866 9.31771 20.8801C9.42331 22.7283 10.4581 24.3022 12.6656 25.3455C14.8384 26.3724 18.1638 26.8989 22.9457 26.7428C27.7385 26.5864 34.0434 25.742 42.2103 23.9825L41.9997 23.0049C33.866 24.7573 27.6247 25.5895 22.9131 25.7433C18.1906 25.8975 15.0534 25.3679 13.0929 24.4414C11.1671 23.5312 10.3978 22.2542 10.3161 20.8231C10.2312 19.3373 10.8819 17.5916 12.0264 15.7929C14.3107 12.2028 18.3854 8.67513 21.4115 7.08433C22.1648 6.68829 22.831 6.42432 23.3719 6.30404C23.9308 6.17978 24.2643 6.22886 24.4351 6.33004C24.5605 6.40431 24.7051 6.57293 24.6914 7.05502C24.6773 7.5502 24.4913 8.28112 24.0425 9.29823L24.9575 9.70187Z" fill="#2A85FF"/>
</svg>
