<svg width="104" height="78" viewBox="0 0 104 78" fill="none" xmlns="http://www.w3.org/2000/svg">
<path d="M58.5 43L58.9944 43.0746L58.5 43ZM103.5 2.5L98.0946 0.471484L99.0406 6.16696L103.5 2.5ZM0.849198 77.3578C11.1762 67.2807 26.4534 53.5029 38.7369 44.897C41.8062 42.7466 44.6807 40.9247 47.2385 39.5655C49.8036 38.2025 52.019 37.3217 53.7767 37.0258C55.5417 36.7287 56.7127 37.0376 57.387 37.8633C58.0895 38.7236 58.4005 40.3089 58.0056 42.9253L58.9944 43.0746C59.3995 40.391 59.1438 38.4336 58.1615 37.2308C57.1509 35.9933 55.5187 35.7186 53.6108 36.0397C51.6956 36.3621 49.3683 37.3013 46.7693 38.6824C44.163 40.0674 41.2521 41.9138 38.1631 44.078C25.8132 52.7304 10.4905 66.5526 0.150802 76.6421L0.849198 77.3578ZM58.0056 42.9253C57.5351 46.0424 55.9089 48.0816 53.6589 49.2648C51.3871 50.4594 48.4426 50.7981 45.3493 50.4074C39.1395 49.6229 32.5908 45.9395 30.0581 40.8874C28.8037 38.3852 28.5258 35.5371 29.7657 32.4863C31.0125 29.4184 33.8125 26.1028 38.8009 22.7373C48.7839 16.0023 67.3769 9.17121 99.1498 3.72936L98.981 2.74371C67.1692 8.19222 48.4048 15.0518 38.2417 21.9083C33.1571 25.3386 30.1868 28.794 28.8393 32.1098C27.4848 35.4426 27.7882 38.591 29.1641 41.3355C31.8919 46.7768 38.7989 50.5879 45.224 51.3995C48.4482 51.8068 51.616 51.4689 54.1243 50.1498C56.6545 48.8193 58.4762 46.5078 58.9944 43.0746L58.0056 42.9253Z" fill="#2A85FF"/>
</svg>
